<?xml version="1.0" encoding="UTF-8" standalone="no"?>
<!-- Created with Inkscape (http://www.inkscape.org/) -->

<svg
   xmlns:dc="http://purl.org/dc/elements/1.1/"
   xmlns:cc="http://creativecommons.org/ns#"
   xmlns:rdf="http://www.w3.org/1999/02/22-rdf-syntax-ns#"
   xmlns:svg="http://www.w3.org/2000/svg"
   xmlns="http://www.w3.org/2000/svg"
   xmlns:sodipodi="http://sodipodi.sourceforge.net/DTD/sodipodi-0.dtd"
   xmlns:inkscape="http://www.inkscape.org/namespaces/inkscape"
   width="85.147865mm"
   height="74.332481mm"
   viewBox="0 0 301.70503 263.38281"
   id="svg2"
   version="1.1"
   inkscape:version="0.91 r13725"
   sodipodi:docname="right-handed-system.svg">
  <defs
     id="defs4" />
  <sodipodi:namedview
     id="base"
     pagecolor="#ffffff"
     bordercolor="#666666"
     borderopacity="1.0"
     inkscape:pageopacity="0.0"
     inkscape:pageshadow="2"
     inkscape:zoom="1.979899"
     inkscape:cx="14.190104"
     inkscape:cy="199.10399"
     inkscape:document-units="px"
     inkscape:current-layer="layer1"
     showgrid="false"
     fit-margin-top="0"
     fit-margin-left="0"
     fit-margin-right="0"
     fit-margin-bottom="0"
     inkscape:window-width="1920"
     inkscape:window-height="1023"
     inkscape:window-x="0"
     inkscape:window-y="33"
     inkscape:window-maximized="1" />
  <metadata
     id="metadata7">
    <rdf:RDF>
      <cc:Work
         rdf:about="">
        <dc:format>image/svg+xml</dc:format>
        <dc:type
           rdf:resource="http://purl.org/dc/dcmitype/StillImage" />
        <dc:title></dc:title>
      </cc:Work>
    </rdf:RDF>
  </metadata>
  <g
     inkscape:label="Layer 1"
     inkscape:groupmode="layer"
     id="layer1"
     transform="translate(-357.85714,-283.07617)">
    <path
       style="fill:#000000"
       d="m 532.74581,283.07617 c -1.99223,7.84773 -5.09486,17.40119 -6.88867,24.50003 l 5.32143,0 0.17857,40.49997 0,39.5 -4.44141,-0.18945 c -2.44302,-0.10427 -9.41802,-1.37455 -15.5,-2.82227 -6.08197,-1.44773 -13.98359,-3.28833 -17.55859,-4.08984 -3.575,-0.80152 -10.59023,-3.46874 -15.58984,-5.92773 -4.9996,-2.459 -9.74788,-4.47071 -10.55078,-4.47071 -0.80289,0 -1.88766,-0.40844 -2.41016,-0.9082 -0.5225,-0.49975 -6.46988,-2.28868 -13.2168,-3.97461 -6.74692,-1.68594 -13.06934,-3.49429 -14.05078,-4.01953 -3.51113,-1.8791 -19.84623,-5.94583 -28.92773,-7.20117 -8.96428,-1.23914 -9.33624,-1.21181 -12.20899,0.91211 -3.59083,2.65481 -3.98319,2.93547 -5.18778,2.44196 l -13.91657,-5.70145 2.05943,-4.01981 -22,-0.78906 16.44141,12.00586 1.93861,-4.18974 14.30748,5.81055 c 1.04747,0.63717 1.78001,0.78692 1.5293,3.03544 -0.34049,3.0538 2.68831,9.28697 5.93554,12.21289 3.72517,3.35655 13.34549,9.14687 17.00196,10.23242 8.33523,2.47459 26.18932,9.19526 31.49804,11.85742 8.05321,4.03843 15.91501,6.97908 21.84766,8.16992 2.75,0.55199 9.5,3.10432 15,5.67188 5.5,2.56755 12.1375,5.31213 14.75,6.09961 2.6125,0.78749 4.75,1.78518 4.75,2.21679 0,0.43161 -3.0375,2.87321 -6.75,5.42578 -6.00611,4.12955 -12.81662,10.30311 -21.05273,19.08789 -1.48376,1.58261 -6.07227,5.14482 -10.19727,7.91602 -12.44603,8.36133 -22.67999,16.61372 -25.1582,20.28516 -1.28816,1.9084 -5.7168,5.78349 -9.8418,8.61132 -15.40326,10.55949 -26.71709,20.35626 -31.83398,27.56641 -2.43569,3.4321 -2.99995,7.66552 -1.72266,12.90235 0.67094,2.75082 -0.0906,3.66809 -1.93555,4.92773 l -3.8775,2.64732 -2.98773,-3.23326 c -4.71479,6.73924 -11.22961,12.68953 -15.64258,20.38281 l 24.78599,-10.82533 -4.00558,-4.31417 3.21373,-2.15542 c 1.4109,-0.94628 4.65505,-1.53704 8.45117,-1.55664 4.94598,-0.0256 7.4357,-0.67968 12.66602,-3.33398 6.03728,-3.06381 22.10691,-14.41244 27.88867,-19.69532 1.375,-1.25634 7.72328,-4.77899 14.10742,-7.82812 10.9553,-5.23234 13.52249,-7.13758 20.16211,-14.9668 l 2.36914,-2.79297 1.78711,3.31641 c 1.67448,3.10932 1.68467,3.6568 0.17969,8.72461 -0.88319,2.97402 -1.60547,7.10439 -1.60547,9.17773 0,4.02433 2.20128,13.50823 3.85156,16.5918 0.54914,1.02608 5.64557,3.82479 11.32422,6.2207 5.67865,2.39591 12.52238,5.40146 15.20899,6.67969 8.08258,3.84552 22.59018,6.47182 39.11523,7.08008 13.52598,0.49787 16.34795,0.29062 28.71484,-2.11719 7.54302,-1.46861 16.18684,-3.52077 19.20899,-4.56054 3.02216,-1.03977 9.90033,-3.07775 15.28515,-4.52735 5.38481,-1.44961 13.37516,-3.75307 17.75586,-5.11914 5.6398,-1.75868 9.06987,-2.29656 11.75,-1.84375 2.45248,0.41434 3.78516,0.25566 3.78516,-0.44922 0,-3.32711 -19.80258,0.56306 -45.99023,9.03516 -21.2268,6.86715 -40.63713,9.5606 -56.50977,7.83984 -17.08573,-1.85228 -25.14081,-3.87438 -37.46094,-9.40429 -6.44744,-2.89394 -12.97508,-5.57624 -14.50781,-5.96094 -3.25962,-0.81811 -8.93707,-6.13375 -8.0625,-7.54883 0.38578,-0.62426 1.57463,-0.59333 3.31641,0.084 3.10212,1.20629 55.04945,3.26476 59.93554,2.375 1.77131,-0.32256 4.5446,-1.70176 6.16407,-3.06445 5.05578,-4.25414 5.04537,-13.60343 -0.0195,-17.50976 -1.94803,-1.50242 -1.78504,-1.64058 3.94336,-3.375 3.28529,-0.99471 7.25936,-2.83479 8.83203,-4.08985 2.6038,-2.07793 2.85607,-2.83816 2.82227,-8.49414 -0.0315,-5.27432 -0.38898,-6.49617 -2.36914,-8.09961 -4.26258,-3.45162 -11.96786,-4.83968 -31.59375,-5.69336 -16.19075,-0.70427 -19.71776,-1.14715 -23.85938,-2.99609 -2.67309,-1.19336 -6.04809,-2.25141 -7.5,-2.35156 -3.91428,-0.27002 -13.6558,5.72427 -17.9121,11.02343 -2.05097,2.55349 -4.98119,5.92911 -6.51172,7.50196 -1.53054,1.57284 -3.96103,4.40722 -5.40235,6.29687 -2.90273,3.80569 -12.79128,9.95506 -21.74414,13.52344 -3.20263,1.27649 -7.90409,4.14487 -10.44726,6.375 -5.78154,5.06988 -16.75547,13.44531 -17.61719,13.44531 -0.35518,0 -2.64589,1.37773 -5.0918,3.06055 -5.14326,3.53866 -13.89965,6.68109 -17.16406,6.16016 -3.49389,-0.5576 -3.12129,-1.12714 4.73242,-7.23438 2.46532,-1.91709 5.19826,-4.16133 6.07227,-4.98633 0.87401,-0.825 3.26876,-2.85 5.32226,-4.5 2.0535,-1.65 5.17057,-4.28209 6.92774,-5.84961 13.51096,-12.0527 13.55833,-12.08156 15.84765,-10.03711 2.0895,1.866 2.10627,1.86044 1.41602,-0.35742 -0.56156,-1.80438 -0.38179,-2.12015 0.92383,-1.61914 1.26079,0.48381 1.55567,0.0874 1.3164,-1.77344 -0.24627,-1.91522 1.37676,-3.89993 8.08985,-9.88086 4.6195,-4.11568 10.6945,-9.31878 13.5,-11.5625 2.80549,-2.24372 5.71977,-4.83122 6.47461,-5.75 1.74714,-2.12659 3.73284,-2.13851 4.54297,-0.0273 0.34679,0.90372 0.88283,1.39256 1.18945,1.08594 0.30661,-0.30661 0.0534,-1.49548 -0.56055,-2.64258 -0.66467,-1.24194 -0.72473,-2.08594 -0.14844,-2.08594 1.19845,0 2.4376,3.6488 1.66407,4.90039 -0.8675,1.40364 0.47889,4.09961 2.04687,4.09961 1.92732,0 1.74162,-2.39639 -0.53125,-6.85156 l -1.92578,-3.77149 15.58594,-13.22656 c 8.57225,-7.27456 15.93748,-12.87313 16.36719,-12.43945 0.42971,0.43369 0.8878,3.15156 1.01757,6.03906 0.12976,2.8875 0.53911,5.25 0.90821,5.25 0.36911,0 0.45643,-3.32957 0.19531,-7.39844 -0.44923,-6.99997 -0.34681,-7.46487 1.90039,-8.64648 1.30623,-0.68684 3.95,-2.7414 5.875,-4.56641 1.925,-1.82501 5.075,-4.3631 7,-5.64062 l 3.5,-2.32227 0.28125,-12.21289 c 0.23594,-10.26216 0.52881,-12.21289 1.83594,-12.21289 4.12793,0 17.14406,-4.56815 19.70117,-6.91406 8.40344,-7.70936 11.56004,-17.55978 11.09766,-34.63867 -0.88493,-32.68698 -0.21724,-36.28877 8.6289,-46.5 5.45029,-6.2913 8.56458,-7.82186 12.8457,-6.31641 2.45654,0.86383 2.61779,1.32566 2.74024,7.89258 0.0715,3.83681 0.6608,8.31594 1.31055,9.95312 0.64975,1.63718 1.80107,5.92426 2.55859,9.52539 0.75752,3.60114 2.33029,8.76923 3.49414,11.48438 1.85755,4.33349 2.14473,7.15433 2.35352,23.08789 l 0.23828,18.15039 4.18945,6.42969 c 2.30414,3.53655 4.98466,7.32226 5.95703,8.41211 0.97237,1.08985 5.19718,5.79665 9.38867,10.46094 10.52031,11.70701 14.0891,16.56712 17.26172,23.5039 3.18817,6.9708 12.95525,20.12357 15.55664,20.94922 0.988,0.31358 2.60121,1.45896 3.58399,2.54492 1.84901,2.04313 5.10073,2.79352 3.93554,0.90821 -0.36237,-0.58633 -2.51069,-2.40581 -4.77343,-4.04493 -6.02923,-4.36755 -12.80812,-12.84467 -17.0586,-21.33007 -3.86583,-7.71752 -9.52095,-15.57952 -16.89453,-23.48438 -6.30281,-6.75694 -12.96833,-14.92094 -16.76172,-20.53125 l -3.35156,-4.95703 -0.16602,-18.04297 c -0.1594,-17.20884 -0.29337,-18.34358 -2.89843,-24.54297 -2.28868,-5.44649 -2.76282,-8.12079 -2.91602,-16.5 -0.14406,-7.87882 -0.67655,-11.21435 -2.51562,-15.72461 -2.10592,-5.16466 -2.6888,-5.79105 -5.94727,-6.40234 -2.67362,-0.50158 -4.44409,-0.18345 -6.82031,1.22461 -4.68656,2.77707 -12.19885,13.02736 -13.83399,18.875 -1.87513,6.7059 -2.69332,18.7418 -1.73437,25.52734 0.42749,3.025 0.48293,10.51093 0.12305,16.63477 -0.74783,12.72523 -2.51984,17.42449 -9.15039,24.25586 -4.08191,4.20555 -11.35039,7.1949 -18.1836,7.48047 l -3.07617,0.1289 0.14844,-28 c 0.10578,-17.3928 0.28022,-34.60735 0.17299,-52.00003 l 5.87974,0 -6.8125,-24.49997 z m 58.27539,20.4961 c 0.5386,0.1157 1.31552,1.57457 1.84766,3.55078 0.60815,2.25851 0.96011,5.30871 0.78125,6.77929 -0.31502,2.59016 -0.36047,2.56437 -1.46875,-0.82617 -1.9505,-5.96709 -2.37035,-8.85359 -1.375,-9.46875 0.0658,-0.0407 0.1379,-0.0517 0.21484,-0.0351 z m -188.08594,51.26757 c 0.44241,0.003 0.9145,0.0159 1.42188,0.0371 7.99342,0.33449 25.33222,4.39119 33.25391,7.7793 2.06002,0.88106 8.02109,2.65671 13.24609,3.94727 11.60141,2.86551 20.81616,6.29433 30.87305,11.48632 5.04172,2.60285 9.99956,4.29797 14.62695,5 3.85,0.58409 11.20332,2.1689 16.33984,3.52344 5.13652,1.35455 10.53652,2.46856 12,2.47656 6.96253,0.0357 7.16016,0.32875 7.16016,10.54493 0,5.1284 -0.3375,9.51504 -0.75,9.75 -0.63797,0.36338 -14.20163,-3.93458 -15.03906,-4.76563 -0.15897,-0.15777 0.38296,-2.24074 1.20508,-4.62695 0.82211,-2.38622 1.30622,-4.52581 1.07617,-4.75586 -0.40039,-0.4004 -1.71095,2.3734 -2.87891,6.08984 -0.78397,2.49458 -1.92693,2.28172 -15.21094,-2.83398 -6.54662,-2.52111 -14.48984,-5.48742 -17.65234,-6.5918 -5.59801,-1.95488 -7.28995,-4.01901 -4.25,-5.18555 1.926,-0.73907 1.95129,-2.63867 0.0352,-2.63867 -0.80565,0 -1.9675,0.9396 -2.58204,2.08789 -1.40735,2.62964 -2.34253,2.41329 -19.95312,-4.62109 -7.425,-2.96584 -14.7375,-5.68213 -16.25,-6.03711 -3.08491,-0.72403 -3.4449,-2.12769 -1.28125,-4.98828 1.68618,-2.22933 1.9154,-3.44141 0.65234,-3.44141 -0.48327,0 -1.43764,1.35 -2.12109,3 -1.43019,3.4528 -2.31189,3.61167 -7.62695,1.36328 -2.12966,-0.90089 -10.3214,-4.01239 -18.20313,-6.91406 -7.88174,-2.90168 -14.60588,-5.55119 -14.9414,-5.88672 -0.33552,-0.33552 0.15202,-1.37077 1.08203,-2.30078 1.09196,-1.09197 2.67074,-1.52153 5.76757,-1.49805 z m -8.57812,6.50977 13,4.92383 c 7.15,2.70801 15.925,5.94867 19.5,7.20117 6.289,2.20336 6.51864,2.40382 7.0625,6.18945 0.53865,3.74934 0.58039,3.78691 1,0.91211 0.53092,-3.63733 1.1427,-3.59053 12.9375,0.9961 4.675,1.81796 12.21209,4.73388 16.75,6.47851 7.68399,2.95418 8.20989,3.33928 7.64258,5.59961 -0.69867,2.78373 1.20998,3.35249 3.00586,0.89649 1.29719,-1.77401 4.48107,-0.84626 24.92383,7.2539 l 11.82421,4.6836 -0.58398,3.54687 -0.58203,3.54492 1.54101,-2.75 c 1.87045,-3.33574 2.59202,-3.36772 10.32422,-0.46094 l 6.08789,2.28907 -11.53711,9.46093 c -6.34582,5.20363 -12.96841,10.83198 -14.71679,12.50782 -1.74838,1.67585 -6.32969,5.5931 -10.17969,8.70507 -3.85,3.112 -8.31849,6.81365 -9.92969,8.22461 -1.99229,1.74468 -3.25516,2.23899 -3.94922,1.54493 -1.68922,-1.68922 -2.47861,-1.17372 -2.80859,1.83984 -0.2523,2.30405 -3.51529,5.61686 -16.74414,17 -9.0369,7.77606 -16.76125,14.13867 -17.16602,14.13867 -0.40476,0 -1.21728,-1.2375 -1.80664,-2.75 -1.05552,-2.70882 -1.06308,-2.70134 -0.5039,0.5 0.35111,2.01008 0.1559,3.25 -0.51172,3.25 -0.59371,0 -1.08008,0.57735 -1.08008,1.28321 0,1.14868 -9.32413,9.56376 -30.64648,27.65429 -3.93087,3.33507 -7.62337,6.0625 -8.20508,6.0625 -2.10528,0 -2.53851,-7.1215 -0.64649,-10.63476 3.07324,-5.70666 18.80411,-19.66186 31.00782,-27.50782 3.85551,-2.47876 8.90808,-6.77184 11.22656,-9.54101 2.31848,-2.76917 6.81227,-7.01041 9.98828,-9.42383 3.17601,-2.41342 6.00039,-4.6181 6.27539,-4.90039 0.275,-0.2823 4.775,-3.38299 10,-6.89063 5.8628,-3.93582 10.79575,-8.14417 12.88477,-10.99023 3.59321,-4.89535 9.95457,-10.32188 19.36523,-16.51953 3.1625,-2.08276 5.75,-4.40718 5.75,-5.16602 0,-1.69594 -3.4918,-4.04215 -7.47656,-5.02343 -1.63732,-0.4032 -8.08574,-3.13431 -14.33008,-6.06836 -6.24435,-2.93405 -12.41678,-5.33399 -13.71484,-5.33399 -3.36292,0 -14.86356,-4.30962 -25.42579,-9.52734 -4.97986,-2.46005 -9.46108,-4.47266 -9.95898,-4.47266 -0.49791,0 -5.71053,-1.62524 -11.58203,-3.61133 -18.7992,-6.35904 -29.37402,-14.80976 -28.33789,-22.64453 z m 174.07422,16.80078 c -0.40842,0.0293 -0.57422,0.31335 -0.57422,0.83594 0,1.20176 7.91577,4.997 13.8125,6.62109 5.76179,1.58692 12.54647,1.8586 11.6875,0.46875 -0.33992,-0.55 -2.05355,-1.00472 -3.80859,-1.01172 -4.58902,-0.0171 -12.62642,-2.34544 -16.69141,-4.83593 -2.38979,-1.46415 -3.74509,-2.12693 -4.42578,-2.07813 z m -7.91406,23.92578 c -0.50089,0 -0.62891,1.40625 -0.28516,3.125 0.34375,1.71875 0.625,8.66273 0.625,15.42969 0,9.65786 0.32629,12.62902 1.51562,13.81836 0.83335,0.83333 2.41808,4.43734 3.52149,8.00976 1.10341,3.57243 3.2523,8.88563 4.77539,11.80664 1.5231,2.92103 3.53254,7.33847 4.4668,9.81641 0.93427,2.47795 3.50503,6.68994 5.71093,9.35938 2.20589,2.66944 4.00977,5.17174 4.00977,5.56054 0,0.3888 2.10727,2.81431 4.68359,5.39063 4.35044,4.35044 6.31641,5.60888 6.31641,4.04297 0,-0.35295 -1.2375,-1.86529 -2.75,-3.35938 -1.5125,-1.49408 -3.43006,-3.56696 -4.26172,-4.60742 -7.32544,-9.16464 -11.31544,-14.9925 -13.05859,-19.07422 -1.13149,-2.64947 -3.60432,-7.91672 -5.49414,-11.70312 -1.88981,-3.78639 -3.43555,-7.66803 -3.43555,-8.62696 0,-2.53825 -2.86339,-8.98828 -3.99023,-8.98828 -0.56166,0 -1.00732,-5.31568 -1.07032,-12.75 -0.13955,-16.48227 -0.19773,-17.25 -1.27929,-17.25 z m -14.89649,9 c -1.11337,0 -0.95827,0.72948 0.91406,4.30078 2.69887,5.14788 6.3029,28.7015 5.82813,38.08985 -0.25926,5.1267 -0.13163,6.82174 0.34766,4.60937 2.43814,-11.25425 -2.95407,-47 -7.08985,-47 z m 109.27344,49 c -1.01132,0 -3.13242,6.47931 -6.54688,20 -2.79459,11.06609 -6.17405,20 -7.5664,20 -0.76209,0 -2.90497,6.21673 -2.91797,8.46485 -0.003,0.53035 0.73449,0.22449 1.63867,-0.67969 2.2977,-2.2977 7.09087,-14.76203 9.33985,-24.28516 1.03907,-4.4 3.00785,-11.4875 4.375,-15.75 1.36714,-4.2625 2.12184,-7.75 1.67773,-7.75 z m -149.91406,1.00977 c 1.44259,-0.005 4.72228,0.9193 7.28906,2.05468 3.8016,1.68163 7.30139,2.13922 18.87695,2.47071 22.38066,0.64091 32.60415,2.47991 36.26172,6.52148 2.10948,2.33096 2.61615,9.17682 0.8125,10.98047 -0.78816,0.78816 -1.05876,-0.33936 -0.97656,-4.06055 0.14649,-6.62898 -2.31959,-8.97656 -9.43164,-8.97656 -7.03862,0 -9.63678,1.28279 -10.50586,5.18945 -1.06451,4.7852 -0.69558,10.02602 0.77734,11.04297 0.70061,0.48371 4.87344,0.65234 9.27344,0.375 l 8,-0.5039 -6.94531,2.44922 c -4.05756,1.43058 -8.83857,2.38111 -11.5,2.28711 -23.11318,-0.8163 -37.03681,-1.79251 -39.5,-2.76954 -1.6195,-0.64237 -6.33298,-1.59794 -10.47461,-2.12304 -10.04286,-1.27331 -10.84745,-1.59759 -12.65235,-5.08789 -1.53518,-2.96871 -1.50487,-3.05495 3.12696,-8.47657 5.10272,-5.97279 13.42306,-11.35824 17.56836,-11.37304 z m 144.88672,2.86718 c -0.60052,-0.009 -1.02317,1.52872 -1.48243,5.16016 l -0.56445,4.46289 1.47461,-4.45898 c 0.81131,-2.45306 1.27063,-4.66687 1.01953,-4.91797 -0.16014,-0.16015 -0.30868,-0.24404 -0.44726,-0.2461 z m -93.34961,8.12305 c 4.44682,0 5.88027,0.44864 7.91015,2.47852 1.93325,1.93325 2.33317,3.08886 1.81641,5.25 -0.95857,4.00885 -0.92198,3.97964 -6.125,4.69336 -2.61927,0.35929 -5.88672,0.83218 -7.26172,1.04883 -1.375,0.21661 -3.0625,0.16218 -3.75,-0.1211 -1.79184,-0.73832 -1.54937,-7.96272 0.36523,-10.88476 1.38835,-2.1189 2.37661,-2.46485 7.04493,-2.46485 z m 88.90429,0.26758 c -0.23221,-0.0455 -0.72167,0.69935 -1.44531,2.45117 -1.77282,4.2917 -3.89596,15.60409 -3.24414,17.28125 0.32064,0.825 0.87353,-0.80124 1.22852,-3.61328 0.35499,-2.81204 1.42274,-7.45337 2.37304,-10.31445 1.14885,-3.45888 1.47492,-5.72877 1.08789,-5.80469 z m -71.89453,4.75195 c -0.0438,-0.009 -0.0818,-0.009 -0.11328,0.002 -0.30272,0.10252 -0.0283,1.12566 1.03516,3.22851 4.65025,9.19534 17.25671,23.2021 26.4082,29.3418 3.575,2.39846 7.0625,4.37166 7.75,4.38476 2.13802,0.0407 1.37431,-1.59824 -1.31641,-2.82421 -3.08337,-1.40488 -16.43359,-11.25653 -16.43359,-12.12696 0,-0.33747 -1.78504,-2.5275 -3.9668,-4.86718 -2.18176,-2.33973 -5.84384,-7.1586 -8.13867,-10.70704 -2.55486,-3.9505 -4.5673,-6.29479 -5.22461,-6.43164 z m -85.44922,9.98047 c 3.19091,0 15.96623,2.11423 21.74024,3.59766 3.00305,0.77154 9.79285,1.40234 15.08984,1.40234 11.901,0 25.68501,1.78047 28.60742,3.69531 1.20594,0.79016 2.67737,2.82673 3.26953,4.5254 1.40878,4.04122 -1.08805,8.62067 -5.95507,10.92187 -3.81785,1.80514 -11.32112,3.17498 -12.25782,2.23828 -0.32655,-0.32655 -10.97656,-0.99428 -23.66601,-1.48437 -28.00192,-1.08147 -30.02262,-1.67399 -31.48047,-9.22266 -1.19861,-6.20634 1.61151,-15.67383 4.65234,-15.67383 z m 60.75586,8.41797 c -1.16915,0.0131 -2.59116,0.1043 -3.98633,0.26953 -5.7359,0.67934 -7.18945,2.32686 -7.18945,8.14453 0,2.41934 0.67098,4.13299 2.0625,5.25977 1.53508,1.24299 3.29221,1.53898 6.85156,1.1582 2.63225,-0.2816 5.31856,-0.93315 5.97071,-1.44922 3.11095,-2.46181 2.22329,-11.85421 -1.2461,-13.18554 -0.37871,-0.14533 -1.29374,-0.21039 -2.46289,-0.19727 z m 0.34375,1.76953 c 1.48093,0.0484 2.11205,0.59087 3.05664,1.93945 2.20441,3.14725 2.04778,4.53817 -0.83203,7.41797 -4.36775,4.36776 -12.54492,2.59995 -12.54492,-2.71289 0,-3.78252 2.07562,-5.63546 7.12695,-6.35937 1.02565,-0.14699 1.83812,-0.24435 2.50391,-0.27735 0.24967,-0.0124 0.47789,-0.0147 0.68945,-0.008 z"
       id="path4147"
       inkscape:connector-curvature="0"
       sodipodi:nodetypes="ccccccssssssssssccccccsssssssssssssssscccccscssscccssssssssssssssssccssssssssssssssssscssssssssssssscsssccssssssscccssssscssscccssssssssscccsssssssssccccccccssscccccssssscsscssssssssssssssscsccccsssssssccccccccssssssssssssssssscsssssssssscccssscscssscssssssssssssssssssssssscsssscsssssssccccsssssccsccccsssscssscsssscccsscssssccsssssssssscsscsscccssssccc" />
    <text
       xml:space="preserve"
       style="font-style:normal;font-weight:normal;font-size:11.25px;line-height:125%;font-family:sans-serif;letter-spacing:0px;word-spacing:0px;fill:#000000;fill-opacity:1;stroke:none;stroke-width:1px;stroke-linecap:butt;stroke-linejoin:miter;stroke-opacity:1"
       x="367.19046"
       y="336.70972"
       id="text4163"
       sodipodi:linespacing="125%"><tspan
         sodipodi:role="line"
         id="tspan4165"
         x="367.19046"
         y="336.70972"
         style="font-size:12.5px">ê<tspan
   style="font-size:12.5px;baseline-shift:sub"
   id="tspan4167">x</tspan></tspan></text>
    <text
       xml:space="preserve"
       style="font-style:normal;font-weight:normal;font-size:11.25px;line-height:125%;font-family:sans-serif;letter-spacing:0px;word-spacing:0px;fill:#000000;fill-opacity:1;stroke:none;stroke-width:1px;stroke-linecap:butt;stroke-linejoin:miter;stroke-opacity:1"
       x="360.9108"
       y="530.45679"
       id="text4163-3"
       sodipodi:linespacing="125%"><tspan
         sodipodi:role="line"
         id="tspan4165-6"
         x="360.9108"
         y="530.45679"
         style="font-size:12.5px">ê<tspan
   style="font-size:12.5px;baseline-shift:sub"
   id="tspan4202">y</tspan></tspan></text>
    <text
       xml:space="preserve"
       style="font-style:normal;font-weight:normal;font-size:12.5px;line-height:125%;font-family:sans-serif;letter-spacing:0px;word-spacing:0px;fill:#000000;fill-opacity:1;stroke:none;stroke-width:1px;stroke-linecap:butt;stroke-linejoin:miter;stroke-opacity:1"
       x="508.91846"
       y="299.13187"
       id="text4163-5"
       sodipodi:linespacing="125%"><tspan
         sodipodi:role="line"
         id="tspan4165-3"
         x="508.91846"
         y="299.13187">ê<tspan
   style="font-size:12.5px;baseline-shift:sub"
   id="tspan4200">z</tspan></tspan></text>
  </g>
</svg>
